<svg width="28" height="28" viewBox="0 0 28 28" fill="none" xmlns="http://www.w3.org/2000/svg">
<g clip-path="url(#clip0_1_25)">
<path d="M0 13.2007C0.0715851 12.671 0.114682 12.1355 0.219138 11.6124C1.22717 6.5558 4.08473 2.9481 8.87874 1.03882C13.2995 -0.721619 17.5858 -0.208735 21.6282 2.29951C22.1497 2.62271 22.3952 3.16332 22.2966 3.71487C22.198 4.26934 21.7823 4.69905 21.2199 4.81943C20.8006 4.90917 20.4332 4.78076 20.0833 4.5546C18.9489 3.82066 17.718 3.31944 16.3981 3.02762C11.1242 1.8625 5.68006 4.69176 3.60701 9.68053C1.31483 15.199 3.74507 21.5666 9.13075 24.1507C15.6377 27.2725 23.3966 23.5124 24.9752 16.4677C25.3864 14.6321 25.3411 12.8038 24.8276 10.9916C24.7312 10.6516 24.6844 10.3174 24.7962 9.97381C24.981 9.40767 25.4996 9.02903 26.0964 9.0283C26.7042 9.02757 27.2169 9.39818 27.4018 9.99935C27.8773 11.5446 28.0694 13.1292 27.9781 14.7415C27.821 17.5183 26.9452 20.0528 25.2783 22.2838C22.8634 25.5157 19.634 27.3842 15.6245 27.9C15.3733 27.9321 15.1227 27.9664 14.8722 27.9999C14.3075 27.9999 13.7421 27.9999 13.1775 27.9999C13.0979 27.9846 13.019 27.962 12.9386 27.9554C11.8174 27.8722 10.7159 27.6775 9.65741 27.2995C4.4653 25.4486 1.3214 21.8154 0.217677 16.4239C0.114682 15.9198 0.0708546 15.4032 0 14.8933C0 14.3286 0 13.7646 0 13.2007Z" fill="#2AE85F"/>
<path d="M11.9649 17.6927C12.0599 17.557 12.111 17.4563 12.187 17.3805C14.8802 14.692 17.5763 12.0079 20.2688 9.31948C20.6662 8.9226 21.1198 8.73583 21.6786 8.88247C22.5844 9.12104 22.9825 10.1767 22.4587 10.9544C22.3835 11.0668 22.2878 11.1667 22.1914 11.263C19.2849 14.1747 16.3769 17.0864 13.469 19.9967C12.5018 20.9641 11.3981 20.9626 10.4273 19.9945C8.86194 18.4318 7.29364 16.8712 5.73338 15.3034C5.03944 14.6067 5.18407 13.5342 6.01899 13.0819C6.55661 12.7908 7.2111 12.9053 7.69394 13.3839C9.03798 14.7175 10.3798 16.0527 11.7217 17.3892C11.7918 17.4593 11.8473 17.5446 11.9649 17.6927Z" fill="#2AE85F"/>
</g>
<defs>
<clipPath id="clip0_1_25">
<rect width="28" height="28" fill="white"/>
</clipPath>
</defs>
</svg>
